<?xml version="1.0" encoding="UTF-8"?>
<svg id="_图层_2" data-name="图层_2" xmlns="http://www.w3.org/2000/svg" viewBox="0 0 501.2 317.79">
    <defs>
        <style>
            .cls-1 {
            fill: #163986;
            }
            .cls-2 {
            fill: #e67812;
            }
        </style>
    </defs>
    <g>
        <g>
            <svg class="icon" viewBox="0 0 1024 1024" version="1.1"
                 xmlns="http://www.w3.org/2000/svg" xmlns:xlink="http://www.w3.org/1999/xlink"
                 height="400">
                <path class="cls-1"
                      d="M322.68 625.504H309.2v-77.2c0-6.096 0.4-13.52 1.12-22.28h-0.304c-1.264 5.12-2.424 8.832-3.44 11.128L267.36 625.504h-6.568l-39.288-87.712c-1.104-2.448-2.264-6.392-3.44-11.768h-0.288c0.416 4.608 0.648 12.072 0.648 22.432v77.048h-13.008V510.536h17.8l35.272 80.168c2.656 6.032 4.376 10.624 5.208 13.76h0.552a259.6 259.6 0 0 1 5.504-14.096l36.04-79.832h16.88v114.968h0.008z m41.504 0h-13.112V543.4h13.112v82.104z m2.264-111.536c0 2.424-0.848 4.44-2.536 6.104a8.32 8.32 0 0 1-6.112 2.496 8.48 8.48 0 0 1-6.056-2.408 8.2 8.2 0 0 1-2.504-6.192c0-2.368 0.832-4.392 2.504-6.032s3.712-2.44 6.056-2.44c2.4 0 4.456 0.792 6.112 2.44 1.688 1.64 2.536 3.664 2.536 6.032m79.664 107.736c-6.288 3.864-13.808 5.776-22.496 5.776-11.776 0-21.24-3.904-28.488-11.712-7.032-7.576-10.568-17.352-10.568-29.336 0-13.448 3.84-24.336 11.6-32.616 7.712-8.288 18.088-12.424 31.136-12.424 7.136 0 13.464 1.392 19 4.168v13.496c-6.128-4.304-12.608-6.44-19.56-6.44-8.36 0-15.168 2.92-20.44 8.744-5.496 5.96-8.272 13.936-8.272 23.88 0 9.552 2.536 17.12 7.584 22.696 5.064 5.552 11.808 8.336 20.304 8.336 7.176 0 13.904-2.36 20.192-7.056v12.488h0.008z m62.72-64.984c-2.312-1.784-5.648-2.648-10.04-2.648-5.344 0-9.832 2.384-13.464 7.208-4.128 5.384-6.168 12.832-6.168 22.36v41.856h-13.152V543.4h13.152v16.928h0.312c1.928-5.992 4.912-10.6 8.896-13.864a19.648 19.648 0 0 1 12.576-4.488c3.504 0 6.096 0.376 7.872 1.12l0.016 13.624z m73.232 27.88c0-10.504-2.368-18.536-7.12-24.048-4.6-5.296-11.04-7.936-19.328-7.936-8.168 0-14.728 2.672-19.624 8.024-5.176 5.72-7.768 13.8-7.768 24.28 0 9.824 2.464 17.536 7.44 23.032 4.944 5.536 11.6 8.312 19.952 8.312 8.64 0 15.256-2.816 19.792-8.408 4.44-5.472 6.656-13.216 6.656-23.256m13.48-0.456c0 13.08-3.696 23.592-11.056 31.472-7.392 7.912-17.336 11.864-29.84 11.864-12.32 0-22.136-3.952-29.32-11.864-7.048-7.624-10.584-17.688-10.584-30.208 0-14.288 4-25.296 12.024-33.112 7.432-7.248 17.36-10.904 29.808-10.904 12.24 0 21.808 3.816 28.696 11.376 6.824 7.6 10.272 18.064 10.272 31.376m65.168 19.392c0 6.72-2.504 12.288-7.536 16.728-5.496 4.808-13.04 7.208-22.528 7.208-7.768 0-14.576-1.624-20.36-4.944V608.4c6.432 5.232 13.536 7.864 21.336 7.864 10.408 0 15.616-3.832 15.616-11.472a10.16 10.16 0 0 0-3.448-7.928c-2.312-2.096-6.808-4.608-13.48-7.544-6.872-3.008-11.776-6.096-14.664-9.304-3.472-3.808-5.216-8.744-5.216-14.832 0-6.816 2.728-12.488 8.112-17 5.4-4.536 12.336-6.8 20.848-6.8 6.52 0 12.368 1.272 17.552 3.848v13.232c-5.416-3.904-11.608-5.856-18.632-5.856-4.352 0-7.848 1.088-10.456 3.192-2.632 2.16-3.952 4.912-3.952 8.272 0 3.64 1.104 6.464 3.296 8.488 1.952 1.864 6.088 4.152 12.328 6.816 7.008 2.936 12.072 5.984 15.16 9.096 4 3.952 6.024 8.968 6.024 15.064m80.32-18.936c0-10.504-2.376-18.536-7.136-24.048-4.6-5.296-11.048-7.936-19.32-7.936-8.168 0-14.728 2.672-19.648 8.024-5.168 5.72-7.752 13.8-7.752 24.28 0 9.824 2.472 17.536 7.392 23.032 5.008 5.536 11.672 8.312 20.008 8.312 8.656 0 15.248-2.816 19.792-8.408 4.44-5.472 6.664-13.216 6.664-23.256m13.504-0.456c0 13.08-3.728 23.592-11.104 31.472-7.36 7.912-17.304 11.864-29.816 11.864-12.336 0-22.144-3.952-29.336-11.864-7.048-7.624-10.584-17.688-10.584-30.208 0-14.288 4.032-25.296 12.016-33.112 7.424-7.248 17.368-10.904 29.824-10.904 12.248 0 21.8 3.816 28.672 11.376 6.84 7.6 10.328 18.064 10.328 31.376m57.904-68.64a17.6 17.6 0 0 0-8.728-2.16c-9.2 0-13.768 5.792-13.768 17.4v12.656h19.24v11.136h-19.24v70.968h-13.16v-70.968h-13.96v-11.136h13.96v-13.312c0-9.032 2.768-16.128 8.4-21.232 4.824-4.44 10.72-6.648 17.736-6.648 4.064 0 7.216 0.488 9.512 1.424v11.872z m51.872 109.176c-3.104 1.776-7.232 2.664-12.344 2.664-14.328 0-21.496-8.08-21.496-24.232v-48.56h-14.088v-11.152h14.088v-20.032l13.168-4.264v24.296h20.664v11.152h-20.664v46.328c0 5.504 0.896 9.44 2.784 11.72 1.896 2.36 5 3.512 9.384 3.512 3.272 0 6.104-0.872 8.504-2.648v11.216z m-710.416 321.256c0 6.44-2.288 12-6.936 16.696a22.76 22.76 0 0 1-16.816 7.04 21.888 21.888 0 0 1-16.4-7.04 23.32 23.32 0 0 1-6.728-16.696c0-6.616 2.232-12.2 6.728-16.824a21.936 21.936 0 0 1 16.4-6.936c6.584 0 12.192 2.336 16.816 7.024 4.648 4.704 6.936 10.288 6.936 16.736m294.248 18.912H405.28L249.696 724.576a110.424 110.424 0 0 1-9.432-18.92h-1.28c1.112 6.432 1.672 20.248 1.672 41.4v217.792h-35.328v-301.44h45.856l150.92 236.48c6.008 9.384 10.12 16.104 12.2 20.152h0.832c-1.4-8.664-2.128-23.456-2.128-44.32V663.408h35.12v301.44h0.016z m226.512 0H514.888v-301.44h152.832v31.944h-117.52v100.272h108.896v31.96H550.192v105.312h124.464v31.952z m242.328-269.496h-86.832v269.504h-35.32V695.352H707.832v-31.96h209.152v31.96z"
                      fill="#1384C8"></path>
                <path class="cls-1"
                      d="M656.864 370.64c3.832-9.856 8.176-19.56 11.416-29.608 18.304-56.776 36.432-113.6 54.44-170.472 6.92-21.848 14.504-43.36 28.12-62.136 21.536-29.672 51.536-45.216 87.04-50.648a299.648 299.648 0 0 1 42.24-3.248c42.136-0.4 84.288-0.12 126.432-0.08 2.24 0 4.48 0.232 7.656 0.416-1.032 2.432-1.592 4.2-2.488 5.792-15.64 27.952-30.976 56.072-47.08 83.744-28.04 48.176-56.128 96.336-85.048 143.984-18.552 30.552-38.672 60.16-61.496 87.792-16.84 20.384-34.568 39.872-57.168 54.16-15.4 9.736-31.848 15.432-50.52 15.336-66.224-0.36-132.448-0.096-198.672-0.192-19.688-0.032-36.544-7.528-50.848-20.824-20.504-19.048-32.744-43.296-42.76-68.864-18.272-46.68-28.504-95.608-40.248-144.112-5.504-22.704-11.76-45.232-17.72-67.824-0.384-1.464-1.136-2.832-2-4.936l-4.616 4.336c-25.824 25.656-48.568 53.928-68.92 83.984-5.544 8.192-7.408 18.992-10.504 28.728-11.392 35.76-21.776 71.864-34.112 107.288-11.816 33.936-33 60.928-66.112 76.88a148.52 148.52 0 0 1-61.512 14.84c-31.84 0.704-63.696 0.784-95.544 1.072-7.616 0.072-7.968-0.552-5.984-7.92 13.656-50.704 30.96-100.112 52.64-147.936 22.352-49.336 48.68-96.384 81.848-139.352 22.584-29.256 47.528-56.248 78.744-76.656 15.832-10.344 32.664-18.52 51.816-20.672 3.152-0.36 6.344-0.584 9.512-0.584 67.824-0.032 135.648 0.656 203.464-0.312 36.376-0.52 62.712 14.84 82.432 44.12 12.264 18.208 21.04 38.088 28.424 58.624 14.888 41.424 24.144 84.376 34.6 127.024 5.984 24.408 12.648 48.648 19.032 72.96 0.48 1.824 1.256 3.568 1.904 5.344l1.592-0.048z"
                      fill="#1384C8"></path>
            </svg>
        </g>
    </g>
</svg>